<?xml version="1.0" encoding="UTF-8" standalone="no"?>
<!DOCTYPE svg PUBLIC "-//W3C//DTD SVG 1.1//EN" "http://www.w3.org/Graphics/SVG/1.1/DTD/svg11.dtd">
<svg width="100%" height="100%" viewBox="0 0 452 577" version="1.1" xmlns="http://www.w3.org/2000/svg" xmlns:xlink="http://www.w3.org/1999/xlink" xml:space="preserve" xmlns:serif="http://www.serif.com/" style="fill-rule:evenodd;clip-rule:evenodd;stroke-linejoin:round;stroke-miterlimit:2;">
    <g transform="matrix(1,0,0,1,-147.067,-91.7475)">
        <path d="M269.362,91.756C266.444,91.847 263.302,92.924 259.739,95.736C251.009,92.37 242.545,91.2 234.976,98.054C223.288,96.538 219.489,99.666 216.611,103.319C214.046,103.265 197.411,100.681 189.783,112.06C170.614,109.791 164.555,123.335 171.42,135.965C167.505,142.026 163.448,148.014 172.604,159.568C169.365,166.004 171.373,172.985 179.002,181.433C176.989,190.48 180.946,196.863 188.046,201.837C186.718,214.217 199.399,221.414 203.185,223.979C204.639,231.193 207.669,238 222.153,241.763C224.541,252.513 233.246,254.37 241.675,256.626C213.815,272.82 189.924,294.128 190.086,346.408L186.005,353.688C154.06,373.115 125.319,435.554 170.262,486.306C173.198,502.192 178.121,513.603 182.505,526.232C189.061,577.121 231.852,600.95 243.138,603.768C259.677,616.366 277.29,628.319 301.126,636.692C323.596,659.866 347.939,668.698 372.415,668.684C372.774,668.684 373.14,668.688 373.498,668.684C397.975,668.699 422.317,659.867 444.787,636.692C468.623,628.319 486.237,616.366 502.776,603.768C514.062,600.95 556.852,577.121 563.409,526.232C567.792,513.603 572.716,502.192 575.652,486.306C620.594,435.55 591.854,373.107 559.908,353.68L555.821,346.401C555.983,294.125 532.091,272.817 504.231,256.619C512.661,254.363 521.366,252.507 523.754,241.756C538.238,237.992 541.269,231.185 542.722,223.972C546.509,221.408 559.189,214.21 557.861,201.83C564.96,196.855 568.918,190.472 566.905,181.426C574.534,172.978 576.542,165.997 573.303,159.561C582.46,148.011 578.398,142.024 574.488,135.963C581.348,123.333 575.294,109.789 556.117,112.057C548.492,100.679 531.862,103.263 529.291,103.316C526.413,99.664 522.616,96.535 510.928,98.052C503.359,91.198 494.895,92.368 486.165,95.734C475.799,87.554 468.939,94.111 461.104,96.59C448.553,92.489 445.683,98.107 439.517,100.394C425.829,97.502 421.67,103.799 415.108,110.445L407.476,110.294C386.831,122.46 376.575,147.234 372.94,159.969C369.302,147.232 359.07,122.458 338.429,110.294L330.797,110.445C324.227,103.799 320.068,97.502 306.38,100.394C300.214,98.107 297.352,92.489 284.793,96.59C279.651,94.963 274.921,91.581 269.352,91.754L269.362,91.756ZM374.581,589.486C400.937,588.336 436.304,597.976 436.373,610.764C436.81,623.182 404.299,651.238 372.832,650.696C340.244,652.102 308.29,624.001 308.708,614.262C308.22,599.981 348.388,588.831 374.581,589.486ZM468.175,506.532L468.175,506.525C491.408,480.293 516.246,463.166 533.548,476.549C545.196,488.155 552.028,531.858 531.637,558.028C503.555,596.993 465.54,598.51 451.378,587.657C436.567,573.687 447.873,530.313 468.175,506.532ZM277.229,513.698C295.994,536.306 304.548,576.024 288.889,587.732C274.073,596.67 238.095,592.989 212.523,556.253C195.277,525.427 197.499,494.058 209.608,484.842C227.716,473.812 255.695,488.711 277.23,513.698L277.229,513.698ZM439.899,536.106C439.899,536.212 439.9,536.318 439.9,536.425C439.9,569.613 410.283,575.067 374.292,575.067C338.301,575.067 308.685,569.613 308.685,536.425L308.685,535.787C309.934,520.708 339.55,509.009 375.541,509.009C411.532,509.009 438.651,519.459 439.9,535.787C439.908,535.893 439.899,535.999 439.899,536.106ZM289.219,496.24C283.252,498.413 276.643,495.332 274.47,489.365C272.297,483.397 275.377,476.788 281.345,474.615C336.033,454.701 395.518,446.661 461.316,475.416C467.135,477.959 469.795,484.749 467.252,490.568C464.709,496.387 457.919,499.047 452.1,496.504C392.551,470.48 338.713,478.217 289.219,496.24ZM200.466,366.176C214.486,362.417 231.11,392.457 227.697,421.095C227.538,422.431 227.365,423.77 227.179,425.108C223.002,455.121 220.88,481.255 186.494,476.989C160.226,455.861 151.765,393.986 200.466,366.176ZM539.643,364.564C563.994,378.469 574.054,400.891 574.742,422.479C575.431,444.067 566.749,464.82 553.615,475.385C542.293,480.414 516.357,457.117 511.757,428.778C506.655,397.345 524.207,360.428 539.643,364.564ZM279.738,443.306C272.739,446.317 264.612,443.079 261.601,436.08C258.591,429.081 261.829,420.954 268.828,417.943C319.781,396.024 402.783,385.113 477.079,419.902C483.979,423.133 486.958,431.358 483.727,438.259C480.496,445.159 472.271,448.138 465.371,444.907C399.144,413.896 325.157,423.768 279.738,443.306ZM264.388,388.604C255.64,391.789 245.951,387.273 242.766,378.525C239.58,369.777 244.096,360.088 252.844,356.903C307.806,336.889 411.319,317.926 494.961,355.293C503.461,359.091 507.279,369.076 503.481,377.576C499.684,386.076 489.699,389.894 481.199,386.097C406.296,352.633 313.608,370.681 264.388,388.604ZM439.922,268.284C465.247,264.008 488.447,269.393 505.102,282.713C521.757,296.032 531.869,317.287 531.018,344.748C529.352,365.804 421.261,271.419 439.922,268.284ZM299.977,266.672C309.308,268.24 286.95,292.62 262.052,313.977C237.153,335.333 209.714,353.665 208.881,343.138C207.18,288.219 249.323,258.12 299.977,266.672ZM372.735,253.864L372.734,253.863C399.559,253.568 432.773,273.879 432.64,293.015C432.523,309.906 409.313,323.58 372.94,323.319C337.322,322.895 313.337,306.137 313.421,289.77C313.491,276.3 342.504,253.077 372.735,253.864ZM520.649,148.075C478.067,162.551 439.644,181.844 407.468,208.38C369.639,190.499 395.716,145.402 414.172,127.497C415.108,132.225 416.167,135.214 417.378,136.096C423.387,129.557 428.297,122.86 436.032,116.567C436.058,120.263 434.196,124.274 438.801,127.206C442.949,121.542 448.555,116.486 455.999,112.195C452.413,118.472 455.383,120.379 457.31,122.98C462.996,118.031 468.396,113.018 478.879,109.135C476.013,112.679 472.009,116.14 476.256,120.211C482.111,116.5 488.002,112.793 501.906,110.155C498.773,113.701 492.295,117.248 496.222,120.794C503.573,117.943 511.706,115.874 520.706,114.673C516.396,118.271 512.801,121.796 516.333,124.583C524.2,122.126 535.036,118.817 545.627,121.668L538.923,128.518C538.179,129.434 554.605,129.231 565.447,129.392C561.49,134.972 557.456,140.358 555.104,149.937C556.179,151.042 561.552,150.428 566.618,149.937C561.423,161.039 552.401,163.841 550.295,168.592C553.469,171.031 557.871,170.396 562.683,168.737C558.944,176.559 551.1,181.918 544.903,188.266C546.47,189.394 549.207,190.068 555.688,189.286C549.962,195.464 543.045,201.112 534.847,206.191C536.299,207.894 541.292,207.827 545.923,207.94C538.497,215.318 528.94,219.144 519.982,223.971C524.447,227.067 527.639,226.345 531.058,226.302C524.723,231.586 513.951,234.334 503.951,237.524C505.853,240.524 507.755,241.345 511.821,242.187C501.236,248.134 486.074,245.415 481.799,248.454C482.831,251.443 485.742,253.388 489.231,255.012C472.19,256.017 425.587,254.383 416.654,218.578C434.091,199.131 465.915,176.298 520.649,148.075L520.723,148.049L520.712,148.042L520.649,148.075ZM228.323,145.313C283.057,173.537 314.881,196.369 332.317,215.816C323.384,251.621 276.781,253.255 259.74,252.251C263.23,250.627 266.141,248.681 267.173,245.692C262.897,242.654 247.736,245.372 237.151,239.426C241.217,238.583 243.119,237.763 245.021,234.762C235.02,231.573 224.249,228.824 217.914,223.541C221.333,223.583 224.525,224.306 228.989,221.209C220.032,216.382 210.474,212.556 203.049,205.178C207.68,205.065 212.672,205.132 214.124,203.429C205.926,198.351 199.009,192.702 193.284,186.524C199.765,187.306 202.501,186.633 204.068,185.504C197.871,179.157 190.028,173.797 186.288,165.976C191.1,167.634 195.503,168.269 198.676,165.83C196.571,161.079 187.548,158.277 182.354,147.175C187.42,147.667 192.793,148.281 193.867,147.175C191.516,137.596 187.481,132.21 183.524,126.631C194.366,126.469 210.793,126.673 210.049,125.756L203.345,118.907C213.935,116.055 224.771,119.364 232.638,121.821C236.17,119.034 232.576,115.51 228.266,111.911C237.266,113.113 245.399,115.182 252.749,118.032C256.677,114.486 250.199,110.94 247.066,107.393C260.97,110.031 266.861,113.738 272.715,117.449C276.963,113.378 272.958,109.918 270.092,106.374C280.576,110.257 285.976,115.27 291.661,120.218C293.589,117.617 296.558,115.71 292.973,109.434C300.417,113.724 306.023,118.78 310.17,124.445C314.776,121.512 312.914,117.502 312.939,113.806C320.675,120.099 325.584,126.795 331.594,133.334C332.804,132.453 333.864,129.464 334.8,124.736C353.255,142.64 379.333,187.738 341.504,205.618C309.328,179.082 270.904,159.789 228.323,145.313L228.259,145.28L228.248,145.288L228.323,145.313Z" style="fill:white;fill-rule:nonzero;"/>
    </g>
</svg>
